<svg width="38" height="38" viewBox="0 0 38 38" fill="none" xmlns="http://www.w3.org/2000/svg">
<g id="VF_alert_cmyk_rgb 1">
<path id="Vector" d="M37.0483 36.0966H0.95166L18.9933 1.78271L37.0483 36.0966ZM7.2917 32.2899H30.7217L18.9933 9.85185L7.2917 32.2899ZM17.1033 17.1033H20.8966V24.7034H17.1033V17.1033ZM19.0067 25.6416C19.4624 25.6282 19.9182 25.722 20.3203 25.9633C21.0441 26.3922 21.4328 27.2501 21.3658 28.2152C21.2719 29.6092 20.3605 30.3196 19.1943 30.3866C18.819 30.4134 18.4437 30.3732 18.0818 30.2526C17.2776 29.9577 16.7816 29.3813 16.661 28.4564C16.5538 27.6924 16.6744 26.982 17.1704 26.3922C17.6127 25.8695 18.2025 25.6818 18.8324 25.655C18.8861 25.6416 18.9397 25.6416 19.0067 25.6416Z" fill="black"/>
</g>
</svg>
