<svg xmlns="http://www.w3.org/2000/svg" width="19" height="20" viewBox="0 0 19 20" fill="none">
  <g clip-path="url(#clip0_16_61)">
    <path d="M13.7524 0H5.24092C2.35238 0 0 2.47619 0 5.51675V14.4762C0 17.5168 2.35238 19.9929 5.24092 19.9929H13.7524C16.6409 19.9929 18.9933 17.5168 18.9933 14.4762V5.51675C19 2.47619 16.6476 0 13.7524 0ZM17.3111 14.4762C17.3111 16.5432 15.7161 18.2222 13.7524 18.2222H5.24092C3.27725 18.2222 1.68219 16.5432 1.68219 14.4762V5.51675C1.68219 3.45679 3.28395 1.77072 5.24092 1.77072H13.7524C15.7161 1.77072 17.3111 3.44974 17.3111 5.51675V14.4762Z" fill="white"/>
    <path d="M9.49642 4.84668C6.79554 4.84668 4.604 7.16061 4.604 9.99659C4.604 12.8396 6.80224 15.1465 9.49642 15.1465C12.1973 15.1465 14.3888 12.8326 14.3888 9.99659C14.3955 7.16061 12.1973 4.84668 9.49642 4.84668ZM9.49642 13.3758C7.72711 13.3758 6.28619 11.859 6.28619 9.99659C6.28619 8.13416 7.72711 6.6174 9.49642 6.6174C11.2657 6.6174 12.7066 8.13416 12.7066 9.99659C12.7066 11.859 11.2657 13.3758 9.49642 13.3758Z" fill="white"/>
    <path d="M14.5969 3.34399C14.2752 3.34399 13.9535 3.48509 13.7257 3.72495C13.4978 3.96481 13.3638 4.30343 13.3638 4.64911C13.3638 4.98773 13.4978 5.32636 13.7257 5.56622C13.9535 5.80608 14.2752 5.94717 14.5969 5.94717C14.9253 5.94717 15.2403 5.80608 15.4682 5.56622C15.696 5.32636 15.8301 4.98773 15.8301 4.64911C15.8301 4.30343 15.696 3.97186 15.4682 3.72495C15.247 3.47803 14.9253 3.34399 14.5969 3.34399Z" fill="white"/>
  </g>
  <defs>
    <clipPath id="clip0_16_61">
      <rect width="19" height="20" fill="white"/>
    </clipPath>
  </defs>
</svg>