<svg xmlns="http://www.w3.org/2000/svg" width="20" height="19" viewBox="0 0 20 19" fill="none">
  <path d="M18.8995 1.0455C18.1658 0.348501 17.284 0 16.2469 0H3.74603C2.71605 0 1.83422 0.348501 1.10053 1.0455C0.366843 1.7425 0 2.58025 0 3.55873V15.4346C0 16.4131 0.366843 17.2575 1.10053 17.9545C1.83422 18.6515 2.71605 19 3.75309 19H16.254C17.284 19 18.1728 18.6515 18.8995 17.9545C19.6332 17.2575 20 16.4198 20 15.4346V3.55873C20 2.58025 19.6332 1.7425 18.8995 1.0455ZM6.09524 15.9037H3.08289V7.32522H6.08818L6.09524 15.9037ZM5.82011 5.73016C5.5097 6.01164 5.09347 6.15908 4.58554 6.15908H4.57143C4.0776 6.15908 3.67549 6.01834 3.36508 5.73016C3.05467 5.44198 2.90653 5.09347 2.90653 4.67125C2.90653 4.24233 3.06173 3.88713 3.37919 3.60564C3.69665 3.32416 4.10582 3.18342 4.6067 3.18342C5.10758 3.18342 5.51676 3.32416 5.82011 3.60564C6.12346 3.88713 6.27866 4.24233 6.28571 4.67125C6.28571 5.09347 6.13051 5.44868 5.82011 5.73016ZM16.9101 15.9037H13.9048V11.3129C13.9048 10.0194 13.4039 9.36931 12.3951 9.36931C12.0141 9.36931 11.6896 9.46984 11.4286 9.6709C11.1675 9.87196 10.97 10.1199 10.843 10.4081C10.7795 10.5556 10.7513 10.7901 10.7513 11.0984V15.897H7.74603C7.77425 10.7164 7.77425 7.85467 7.74603 7.31182H10.7513V8.52487C11.3862 7.5866 12.2822 7.11746 13.4462 7.11746C14.4903 7.11746 15.3228 7.44586 15.9577 8.09594C16.5926 8.74603 16.9101 9.71111 16.9101 10.9778V15.9037Z" fill="white"/>
</svg>