<svg xmlns="http://www.w3.org/2000/svg" width="142" height="23" viewBox="0 0 142 23" fill="none">
  <path d="M120.204 11.3465H141.905C141.905 8.46868 140.762 5.70871 138.727 3.67377C136.692 1.63883 133.932 0.495605 131.054 0.495605C125.062 0.495661 120.204 5.35376 120.204 11.3465Z" fill="#FFDA00"/>
  <path d="M131.054 22.1972C125.062 22.1972 120.204 17.3392 120.204 11.3464H141.905C141.905 14.2242 140.762 16.9842 138.727 19.0191C136.692 21.054 133.932 22.1972 131.054 22.1972Z" fill="#2071B5"/>
  <path d="M33.4236 5.48096H23.3496V8.13496H26.9376V17.864H30.1806V8.13496H33.4236V5.48096Z" fill="white"/>
  <path d="M34.5537 5.48096V8.13496H37.7977V17.864H41.0407V8.13496H44.6277V5.48096H34.5537Z" fill="white"/>
  <path d="M69.3121 17.864V5.48096H66.2161V12.891L60.6971 5.48096H57.6021V17.864H60.6971V10.544L66.2161 17.864H69.3121Z" fill="white"/>
  <path d="M46.2007 17.864H49.4437H55.3567V15.211H49.4437V12.774H54.4557V10.12H49.4437V8.13496H55.3567V5.48096H46.2007V17.864Z" fill="white"/>
  <path d="M71.7788 17.864H75.0228V12.852H80.2578V10.199H75.0228V8.13496H81.2308V5.48096H71.7788V17.864Z" fill="white"/>
  <path d="M10.3899 5.48096L6.86385 14.187H6.83585L3.30885 5.48096H0.172852L5.25285 17.864H8.44585L13.5259 5.48096H10.3899Z" fill="white"/>
  <path d="M105.057 17.864H114.012V15.116H108.3V5.48096H105.057V17.864Z" fill="white"/>
  <path d="M94.7026 17.864H103.658V15.116H97.9456V5.48096H94.7026V17.864Z" fill="white"/>
  <path fill-rule="evenodd" clip-rule="evenodd" d="M93.6481 17.8646H90.5124L89.623 15.6532H84.173L83.2837 17.8646H80.1479L85.3098 5.4812H88.4862L93.6481 17.8646ZM86.8868 8.9034L85.1924 13.1328L88.6089 13.1323L86.9083 8.9034H86.8868Z" fill="white"/>
  <path fill-rule="evenodd" clip-rule="evenodd" d="M24.9354 17.8646H21.7997L20.9098 15.6532H15.4598L14.5705 17.8646H11.4346L16.5967 5.4812H19.7734L24.9354 17.8646ZM18.1741 8.9034L16.4797 13.1328L19.8961 13.1323L18.1955 8.9034H18.1741Z" fill="white"/>
</svg>