<svg width="243" height="66" viewBox="0 0 243 66" fill="none" xmlns="http://www.w3.org/2000/svg">
<path d="M212.322 17.0102C203.482 17.0102 196.316 24.2935 196.316 33.2779H228.328C228.328 24.2935 221.162 17.0102 212.322 17.0102Z" fill="#FFDA00"/>
<path d="M212.322 49.5456C203.482 49.5456 196.316 42.2623 196.316 33.2779H228.328C228.328 42.2623 221.162 49.5456 212.322 49.5456Z" fill="#2071B5"/>
<path fill-rule="evenodd" clip-rule="evenodd" d="M26.0656 38.66L31.3807 25.1441H36.0953L28.4529 44.3695H23.6483L16.0059 25.1441H20.7204L26.0356 38.66H26.0656ZM50.8696 25.1441H66.0193V29.2616H61.1545V44.3695H56.2748V29.2616H50.8696V25.1441ZM67.7309 29.2616V25.1441H82.8806V29.2616H77.4904V44.3695H72.6106V29.2616H67.7309ZM120.012 44.3695V25.1441H115.357V36.6548L107.054 25.1441H102.399V44.3695H107.054V33.0118L115.357 44.3695H120.012ZM90.1176 44.3695H85.2529V25.1441H99.0212V29.2616H90.1176V32.3536H97.6549V36.4712H90.1176V40.252H99.0212V44.3695H90.1176ZM123.72 44.3695H128.6V36.5936H136.482V32.4761H128.6V29.2616H137.939V25.1441H123.72V44.3695ZM173.779 44.3695H187.247V40.0989H178.658V25.1441H173.779V44.3695ZM171.677 44.3695H158.208V25.1441H163.088V40.0989H171.677V44.3695ZM151.902 44.3695H156.617L148.854 25.1441H144.08L136.317 44.3695H141.032L142.368 40.9408H150.566L151.902 44.3695ZM146.452 30.4556L143.9 37.0222H149.005L146.452 30.4556ZM48.5423 44.3695H53.2569L45.4944 25.1441H40.7048L32.9423 44.3695H37.6568L39.0081 40.9408H47.2061L48.5423 44.3695ZM43.032 30.4556L40.5396 37.0222H45.5845L43.032 30.4556Z" fill="black"/>
<mask id="mask0_4_605" style="mask-type:luminance" maskUnits="userSpaceOnUse" x="16" y="25" width="172" height="20">
<path fill-rule="evenodd" clip-rule="evenodd" d="M26.0656 38.66L31.3807 25.1441H36.0953L28.4529 44.3695H23.6483L16.0059 25.1441H20.7204L26.0356 38.66H26.0656ZM50.8696 25.1441H66.0193V29.2616H61.1545V44.3695H56.2748V29.2616H50.8696V25.1441ZM67.7309 29.2616V25.1441H82.8806V29.2616H77.4904V44.3695H72.6106V29.2616H67.7309ZM120.012 44.3695V25.1441H115.357V36.6548L107.054 25.1441H102.399V44.3695H107.054V33.0118L115.357 44.3695H120.012ZM90.1176 44.3695H85.2529V25.1441H99.0212V29.2616H90.1176V32.3536H97.6549V36.4712H90.1176V40.252H99.0212V44.3695H90.1176ZM123.72 44.3695H128.6V36.5936H136.482V32.4761H128.6V29.2616H137.939V25.1441H123.72V44.3695ZM173.779 44.3695H187.247V40.0989H178.658V25.1441H173.779V44.3695ZM171.677 44.3695H158.208V25.1441H163.088V40.0989H171.677V44.3695ZM151.902 44.3695H156.617L148.854 25.1441H144.08L136.317 44.3695H141.032L142.368 40.9408H150.566L151.902 44.3695ZM146.452 30.4556L143.9 37.0222H149.005L146.452 30.4556ZM48.5423 44.3695H53.2569L45.4944 25.1441H40.7048L32.9423 44.3695H37.6568L39.0081 40.9408H47.2061L48.5423 44.3695ZM43.032 30.4556L40.5396 37.0222H45.5845L43.032 30.4556Z" fill="white"/>
</mask>
<g mask="url(#mask0_4_605)">
<rect x="16.0059" y="25.1441" width="172" height="19" fill="#4E4B48"/>
</g>
</svg>
